HIERARCHY
ROOT hip
{
	OFFSET 0.000000 0.000000 0.000000 
	CHANNELS 6 Xposition Yposition Zposition Xrotation Zrotation Yrotation
	JOINT abdomen
	{
		OFFSET 0.000000 0.000000 0.000000 
		CHANNELS 3 Xrotation Zrotation Yrotation
		JOINT chest
		{
			OFFSET 0.000000 4.862840 -1.823974 
			CHANNELS 3 Xrotation Zrotation Yrotation
			JOINT neck
			{
				OFFSET 0.000000 2.209834 -0.380644 
				CHANNELS 3 Xrotation Zrotation Yrotation
				JOINT head
				{
					OFFSET 0.000000 3.388650 0.513082 
					CHANNELS 3 Xrotation Zrotation Yrotation
					End Site
					{
						OFFSET 0.000000 10.033302 0.000000 
					}
				}
			}
			JOINT lCollar
			{
				OFFSET 0.580691 8.059053 0.760605 
				CHANNELS 3 Yrotation Zrotation Xrotation
				JOINT lShldr
				{
					OFFSET 6.222462 0.009832 -0.321848 
					CHANNELS 3 Zrotation Yrotation Xrotation
					JOINT lForeArm
					{
						OFFSET 10.220657 0.024782 0.183730 
						CHANNELS 3 Yrotation Zrotation Xrotation
						JOINT lHand
						{
							OFFSET 10.719483 0.309727 0.636712 
							CHANNELS 3 Zrotation Yrotation Xrotation
							End Site
							{
								OFFSET 10.033305 0.000000 0.000000 
							}
						}
					}
				}
			}
			JOINT rCollar
			{
				OFFSET -0.580691 8.059053 0.760605 
				CHANNELS 3 Yrotation Zrotation Xrotation
				JOINT rShldr
				{
					OFFSET -6.222462 0.009832 -0.321848 
					CHANNELS 3 Zrotation Yrotation Xrotation
					JOINT rForeArm
					{
						OFFSET -10.220657 0.024782 0.183730 
						CHANNELS 3 Yrotation Zrotation Xrotation
						JOINT rHand
						{
							OFFSET -10.719483 0.309727 0.636712 
							CHANNELS 3 Zrotation Yrotation Xrotation
							End Site
							{
								OFFSET -10.033305 0.000000 0.000000 
							}
						}
					}
				}
			}
		}
	}
	JOINT lThigh
	{
		OFFSET 4.361177 -6.202389 -1.775974 
		CHANNELS 3 Xrotation Zrotation Yrotation
		JOINT lShin
		{
			OFFSET -1.317052 -18.333157 1.143369 
			CHANNELS 3 Xrotation Zrotation Yrotation
			JOINT lFoot
			{
				OFFSET -0.636132 -16.703447 -0.302338 
				CHANNELS 3 Xrotation Yrotation Zrotation
				End Site
				{
					OFFSET 0.000000 -2.207327 5.819317 
				}
			}
		}
	}
	JOINT rThigh
	{
		OFFSET -4.361177 -6.202389 -1.775974 
		CHANNELS 3 Xrotation Zrotation Yrotation
		JOINT rShin
		{
			OFFSET 1.317052 -18.333157 1.143369 
			CHANNELS 3 Xrotation Zrotation Yrotation
			JOINT rFoot
			{
				OFFSET 0.636132 -16.703447 -0.302338 
				CHANNELS 3 Xrotation Yrotation Zrotation
				End Site
				{
					OFFSET 0.000000 -2.207327 5.819317 
				}
			}
		}
	}
}
MOTION
Frames: 11
Frame Time: 0.033333
-0.041048 42.166588 -0.812944 10.527101 6.001541 -7.070490 0.000000 0.000000 0.000000 -13.856803 -3.650647 5.733243 43.648804 -7.752365 -0.807522 -18.853340 1.845947 8.279549 -9.107368 0.524136 25.000000 -73.249390 4.444388 -15.967119 -50.127800 -13.781899 82.046883 -18.930353 -22.517214 -53.997456 9.769010 -5.506021 25.000000 59.470634 18.091515 70.992485 32.485771 -44.920357 58.759037 24.533545 21.590149 -78.294983 -2.333817 5.417660 18.873062 29.247932 -0.065308 -1.100442 -14.832985 7.018649 -24.194197 -15.475957 -14.723936 -2.868032 44.437634 2.333699 3.582561 -15.587571 0.828903 22.239128 
0.002610 41.863354 0.840915 6.830137 5.643518 -7.810922 0.000000 0.000000 0.000000 -14.902175 -2.887947 5.884873 43.188023 -7.812423 -0.812856 -17.798315 1.110909 10.142012 -5.537127 -0.462667 24.842272 -67.689362 0.332191 -17.693338 -44.932690 -7.394969 74.623657 -22.755074 -26.335993 -50.523506 5.639858 -5.290801 25.000000 54.956131 19.692574 68.725891 25.972664 -41.676121 49.925426 23.102831 23.434649 -78.298813 5.272913 4.961509 18.771088 28.720051 -0.870681 -1.249800 -16.242668 8.870923 -26.525917 -7.477678 -15.432653 -3.405439 42.940281 2.665701 3.509262 -18.313078 1.409778 25.339144 
-0.062063 41.297714 2.550512 3.067620 4.846594 -7.376572 0.000000 0.000000 0.000000 -14.853417 -2.898040 5.884912 34.205700 -5.612501 -0.578256 -22.781874 1.258925 10.902205 -2.019538 1.596379 24.800222 -58.528103 -9.176785 -20.034525 -36.270412 0.165025 49.766987 -20.204138 -17.098621 -55.403282 0.264164 -6.459192 24.775290 46.249569 24.900885 63.889198 16.678854 -35.632290 31.891735 25.025177 17.373390 -79.384865 8.951571 6.502882 19.270914 35.200714 -0.834833 -1.614587 -18.101971 7.410616 -28.631601 -1.357250 -15.235602 -3.523921 45.061691 2.040869 3.577392 -19.866314 0.645858 25.668335 
-0.044023 40.691891 4.369215 -1.538696 4.842011 -7.482962 0.000000 0.000000 0.000000 -14.066182 -3.258867 5.815823 25.130199 -4.088481 -0.408518 -28.597036 2.528976 10.318181 0.661492 3.552968 24.605583 -42.927513 -17.326597 -24.242504 -29.539806 6.412110 28.819143 -15.682290 -12.064383 -57.360126 -2.685324 -9.405012 24.183214 34.730003 30.974625 57.587128 8.990867 -27.881977 14.910028 27.006956 8.847898 -80.340965 13.318122 7.236204 19.379633 42.404942 -0.592267 -1.946678 -20.160530 6.591393 -32.856449 4.510424 -17.047350 -4.294965 49.271736 2.624158 4.115524 -22.193464 1.064315 26.970442 
0.146248 40.254208 6.274893 -5.003534 5.496681 -9.025073 0.000000 0.000000 0.000000 -14.968037 -2.688910 5.933094 20.951849 -4.593015 -0.419166 -32.263325 3.733410 9.676371 3.032354 4.302719 24.322311 -25.569553 -19.596251 -28.074575 -24.463545 12.555799 13.374890 -15.883508 -10.557502 -55.520023 -3.716422 -14.699805 23.533482 24.757393 35.973106 51.983902 2.563447 -22.705713 0.260559 27.093407 0.370824 -80.549644 17.313023 6.338409 18.791079 47.956932 -0.121416 -2.102677 -20.486713 6.594537 -36.727169 7.897397 -20.482634 -5.583453 54.772213 2.945731 4.719052 -23.015779 4.137535 31.458565 
0.247096 40.098877 8.221284 -7.767578 5.283385 -11.393099 0.000000 0.000000 0.000000 -15.833223 -1.127426 6.257150 18.771456 -5.121504 -0.446732 -34.917694 4.554773 8.978655 5.192369 4.160601 24.092196 -11.257546 -17.050692 -29.795671 -22.779537 19.997751 4.020798 -19.767302 -11.386688 -51.797043 -4.520499 -19.619015 22.811728 17.260954 38.508797 48.023201 -4.117157 -23.102932 -13.540444 24.957979 -2.665725 -79.901161 20.340504 6.572643 18.637188 53.846531 0.219523 -2.302463 -17.372747 4.563091 -40.999771 9.773486 -22.409084 -6.326228 59.981880 1.012111 4.799597 -20.381365 8.165983 36.944813 
0.246061 40.154961 10.101923 -10.055139 4.798550 -12.499682 0.000000 0.000000 0.000000 -15.850533 -0.610632 6.364767 16.303526 -4.096341 -0.366626 -36.957314 4.501768 8.050988 6.511662 3.543859 24.016804 0.183262 -12.273278 -29.878523 -22.313908 27.972364 -3.042962 -22.293121 -13.121439 -48.276817 -6.497734 -21.284407 21.876190 10.298797 37.740673 45.623306 -11.600224 -28.016825 -24.811117 23.380426 -0.240190 -79.150963 22.421825 7.744187 18.915403 59.000969 0.677873 -2.405677 -11.673576 0.507215 -43.433308 12.096710 -23.883310 -6.937705 63.472218 -0.443315 4.801092 -16.338848 11.428596 37.294083 
0.191105 40.129333 11.807665 -9.881745 4.310339 -12.878363 0.000000 0.000000 0.000000 -16.982935 -0.438970 6.384058 13.537603 -2.394100 -0.222989 -38.009014 4.133587 7.777931 8.026853 3.790437 23.843418 8.038230 -7.367675 -29.233992 -21.357828 35.342262 -12.686217 -23.845215 -13.940172 -45.665745 -8.363832 -21.174715 21.178082 5.132030 34.363155 45.152962 -21.049433 -34.240101 -36.321507 22.744194 2.055794 -78.454430 22.248575 9.384922 19.577394 62.377121 1.127927 -2.432038 -5.873766 -3.188720 -43.197903 12.079776 -24.745882 -7.283712 66.282806 -1.429673 4.844800 -12.950738 14.293785 34.396942 
0.115693 39.849850 13.405575 -8.727470 3.513633 -13.429241 0.000000 0.000000 0.000000 -17.558609 0.074485 6.480338 10.870655 -0.948816 -0.116710 -38.343040 3.873477 7.866489 10.505424 4.403463 23.480898 13.080629 -2.575526 -28.489258 -18.922985 42.054516 -25.428505 -25.653694 -14.615819 -43.305527 -9.580005 -20.952929 20.750715 2.817406 29.715691 46.203564 -34.284821 -38.686287 -51.394543 23.451693 3.533219 -77.752411 22.467684 10.556935 20.069433 63.629456 1.712979 -2.353706 -1.793267 -5.520020 -43.152447 11.088928 -24.562078 -7.198430 68.847061 -2.824925 4.779963 -9.562824 16.939375 36.018978 
0.079423 39.233692 14.933485 -7.481702 3.098447 -13.355859 0.000000 0.000000 0.000000 -16.953192 -0.158801 6.444893 8.613420 0.319521 -0.008154 -38.210335 3.513720 8.022359 12.254590 5.780803 22.995651 14.135171 3.342691 -28.210398 -15.127942 48.457481 -38.604847 -26.996897 -15.334113 -41.488342 -11.338973 -20.303782 20.209684 2.228919 25.101219 47.645840 -48.495079 -38.562130 -67.903374 24.397692 5.681093 -77.032158 23.580816 10.390385 19.900146 63.825371 2.819950 -2.104072 -1.461497 -5.921061 -44.279705 10.954765 -24.615465 -7.216068 71.057556 -3.597444 4.820824 -8.075016 18.587727 39.356617 
0.094575 38.222309 16.339783 -4.324290 3.456952 -12.282252 0.000000 0.000000 0.000000 -17.580769 -0.977506 6.256924 7.725592 0.906167 0.037946 -37.951664 3.132842 7.996572 12.747359 7.642918 22.517519 11.324185 9.631029 -28.708822 -9.516459 53.817310 -52.156704 -27.405016 -15.334312 -40.819241 -12.718955 -20.470047 19.639997 5.658458 20.214285 50.150593 -59.918106 -34.891972 -82.919983 24.718019 7.868828 -76.422417 23.050940 9.901840 19.733454 64.665596 3.922965 -1.883327 -5.621159 -4.869826 -46.046745 9.859663 -25.258642 -7.432905 73.158173 -3.480442 5.028987 -9.614313 19.668211 41.747009 
